<svg width="33" height="35" viewBox="0 0 33 35" fill="none" xmlns="http://www.w3.org/2000/svg">
<g clip-path="url(#clip0_113_133)">
<path d="M32.0583 14.0236L17.5121 0.641065C17.0392 0.206008 16.4165 -0.0294388 15.774 -0.0160612C15.1316 -0.00268358 14.5192 0.258483 14.0649 0.712848L0.686557 14.0912L0 14.7777V34.5002H12.8917V22.1945H19.9236V34.5002H32.8153V14.7201L32.0583 14.0236ZM15.8244 2.32739C15.8451 2.32739 15.8323 2.33186 15.8235 2.34057C15.8143 2.33186 15.8038 2.32739 15.8244 2.32739ZM30.4713 32.1562H22.2675V22.1945C22.2675 21.5728 22.0206 20.9766 21.581 20.537C21.1414 20.0975 20.5452 19.8505 19.9236 19.8505H12.8917C12.2701 19.8505 11.6739 20.0975 11.2343 20.537C10.7947 20.9766 10.5478 21.5728 10.5478 22.1945V32.1562H2.34395V15.7486L15.8244 2.37024C15.8254 2.36936 15.8255 2.36855 15.8262 2.36767L30.4713 15.7486V32.1562Z" fill="black"/>
</g>
<defs>
<clipPath id="clip0_113_133">
<rect width="32.8153" height="34.5" fill="white"/>
</clipPath>
</defs>
</svg>
