<svg width="44" height="44" viewBox="0 0 44 44" fill="none" xmlns="http://www.w3.org/2000/svg">
<path d="M40.5378 11.8578L26.7878 4.29526C26.5848 4.18357 26.3568 4.125 26.1251 4.125C25.8933 4.125 25.6653 4.18357 25.4623 4.29526L11.7123 11.8578C11.4967 11.9765 11.317 12.1508 11.1917 12.3627C11.0665 12.5746 11.0005 12.8162 11.0005 13.0623C11.0005 13.3084 11.0665 13.55 11.1917 13.7618C11.317 13.9737 11.4967 14.1481 11.7123 14.2668L24.7501 21.4374V36.176L20.5756 33.8798L19.2501 36.2874L25.4623 39.7043C25.6653 39.8162 25.8933 39.8749 26.1251 39.8749C26.3568 39.8749 26.5849 39.8162 26.7878 39.7043L40.5378 32.1418C40.7535 32.0231 40.9333 31.8488 41.0586 31.6369C41.1839 31.425 41.25 31.1834 41.2501 30.9373V13.0623C41.25 12.8161 41.1839 12.5745 41.0586 12.3626C40.9333 12.1508 40.7535 11.9764 40.5378 11.8578ZM26.1251 7.07001L37.0219 13.0623L26.1251 19.0545L15.2282 13.0623L26.1251 7.07001ZM38.5001 30.1246L27.5001 36.1746V21.436L38.5001 15.386V30.1246Z" fill="black"/>
<path d="M13.75 22H2.75V19.25H13.75V22Z" fill="black"/>
<path d="M16.5 33H5.5V30.25H16.5V33Z" fill="black"/>
<path d="M19.25 27.5H8.25V24.75H19.25V27.5Z" fill="black"/>
</svg>
