<svg width="44" height="44" viewBox="0 0 44 44" fill="none" xmlns="http://www.w3.org/2000/svg">
<path d="M21.9999 15.3999C20.2495 15.3999 18.5707 16.0953 17.333 17.333C16.0953 18.5707 15.3999 20.2495 15.3999 21.9999C15.3999 23.7503 16.0953 25.4291 17.333 26.6668C18.5707 27.9045 20.2495 28.5999 21.9999 28.5999C23.7503 28.5999 25.4291 27.9045 26.6668 26.6668C27.9045 25.4291 28.5999 23.7503 28.5999 21.9999C28.5999 20.2495 27.9045 18.5707 26.6668 17.333C25.4291 16.0953 23.7503 15.3999 21.9999 15.3999ZM17.5999 21.9999C17.5999 20.8329 18.0635 19.7138 18.8886 18.8886C19.7138 18.0635 20.8329 17.5999 21.9999 17.5999C23.1669 17.5999 24.286 18.0635 25.1112 18.8886C25.9363 19.7138 26.3999 20.8329 26.3999 21.9999C26.3999 23.1669 25.9363 24.286 25.1112 25.1112C24.286 25.9363 23.1669 26.3999 21.9999 26.3999C20.8329 26.3999 19.7138 25.9363 18.8886 25.1112C18.0635 24.286 17.5999 23.1669 17.5999 21.9999ZM16.4999 4.3999C16.7916 4.3999 17.0714 4.5158 17.2777 4.72209C17.484 4.92838 17.5999 5.20816 17.5999 5.4999V8.7999H20.8999V5.4999C20.8999 5.20816 21.0158 4.92838 21.2221 4.72209C21.4284 4.5158 21.7082 4.3999 21.9999 4.3999C22.2916 4.3999 22.5714 4.5158 22.7777 4.72209C22.984 4.92838 23.0999 5.20816 23.0999 5.4999V8.7999H26.3999V5.4999C26.3999 5.20816 26.5158 4.92838 26.7221 4.72209C26.9284 4.5158 27.2082 4.3999 27.4999 4.3999C27.7916 4.3999 28.0714 4.5158 28.2777 4.72209C28.484 4.92838 28.5999 5.20816 28.5999 5.4999V8.7999H29.6999C31.1586 8.7999 32.5575 9.37936 33.589 10.4108C34.6204 11.4423 35.1999 12.8412 35.1999 14.2999V15.3999H38.4999C38.7916 15.3999 39.0714 15.5158 39.2777 15.7221C39.484 15.9284 39.5999 16.2082 39.5999 16.4999C39.5999 16.7916 39.484 17.0714 39.2777 17.2777C39.0714 17.484 38.7916 17.5999 38.4999 17.5999H35.1999V20.8999H38.4999C38.7916 20.8999 39.0714 21.0158 39.2777 21.2221C39.484 21.4284 39.5999 21.7082 39.5999 21.9999C39.5999 22.2916 39.484 22.5714 39.2777 22.7777C39.0714 22.984 38.7916 23.0999 38.4999 23.0999H35.1999V26.3999H38.4999C38.7916 26.3999 39.0714 26.5158 39.2777 26.7221C39.484 26.9284 39.5999 27.2082 39.5999 27.4999C39.5999 27.7916 39.484 28.0714 39.2777 28.2777C39.0714 28.484 38.7916 28.5999 38.4999 28.5999H35.1999V29.6999C35.1999 31.1586 34.6204 32.5575 33.589 33.589C32.5575 34.6204 31.1586 35.1999 29.6999 35.1999H28.5999V38.4999C28.5999 38.7916 28.484 39.0714 28.2777 39.2777C28.0714 39.484 27.7916 39.5999 27.4999 39.5999C27.2082 39.5999 26.9284 39.484 26.7221 39.2777C26.5158 39.0714 26.3999 38.7916 26.3999 38.4999V35.1999H23.0999V38.4999C23.0999 38.7916 22.984 39.0714 22.7777 39.2777C22.5714 39.484 22.2916 39.5999 21.9999 39.5999C21.7082 39.5999 21.4284 39.484 21.2221 39.2777C21.0158 39.0714 20.8999 38.7916 20.8999 38.4999V35.1999H17.5999V38.4999C17.5999 38.7916 17.484 39.0714 17.2777 39.2777C17.0714 39.484 16.7916 39.5999 16.4999 39.5999C16.2082 39.5999 15.9284 39.484 15.7221 39.2777C15.5158 39.0714 15.3999 38.7916 15.3999 38.4999V35.1999H14.2999C12.8412 35.1999 11.4423 34.6204 10.4108 33.589C9.37936 32.5575 8.7999 31.1586 8.7999 29.6999V28.5999H5.4999C5.20816 28.5999 4.92838 28.484 4.72209 28.2777C4.5158 28.0714 4.3999 27.7916 4.3999 27.4999C4.3999 27.2082 4.5158 26.9284 4.72209 26.7221C4.92838 26.5158 5.20816 26.3999 5.4999 26.3999H8.7999V23.0999H5.4999C5.20816 23.0999 4.92838 22.984 4.72209 22.7777C4.5158 22.5714 4.3999 22.2916 4.3999 21.9999C4.3999 21.7082 4.5158 21.4284 4.72209 21.2221C4.92838 21.0158 5.20816 20.8999 5.4999 20.8999H8.7999V17.5999H5.4999C5.20816 17.5999 4.92838 17.484 4.72209 17.2777C4.5158 17.0714 4.3999 16.7916 4.3999 16.4999C4.3999 16.2082 4.5158 15.9284 4.72209 15.7221C4.92838 15.5158 5.20816 15.3999 5.4999 15.3999H8.7999V14.2999C8.7999 12.8412 9.37936 11.4423 10.4108 10.4108C11.4423 9.37936 12.8412 8.7999 14.2999 8.7999H15.3999V5.4999C15.3999 5.20816 15.5158 4.92838 15.7221 4.72209C15.9284 4.5158 16.2082 4.3999 16.4999 4.3999V4.3999ZM32.9999 14.2999C32.9999 13.4247 32.6522 12.5853 32.0334 11.9664C31.4145 11.3476 30.5751 10.9999 29.6999 10.9999H14.2999C13.4247 10.9999 12.5853 11.3476 11.9664 11.9664C11.3476 12.5853 10.9999 13.4247 10.9999 14.2999V29.6999C10.9999 30.5751 11.3476 31.4145 11.9664 32.0334C12.5853 32.6522 13.4247 32.9999 14.2999 32.9999H29.6999C30.5751 32.9999 31.4145 32.6522 32.0334 32.0334C32.6522 31.4145 32.9999 30.5751 32.9999 29.6999V14.2999Z" fill="black"/>
</svg>
