<svg width="44" height="44" viewBox="0 0 44 44" fill="none" xmlns="http://www.w3.org/2000/svg">
<path d="M27.1683 21.624C28.1111 20.2151 28.496 18.5058 28.2481 16.8288C28.0002 15.1517 27.1372 13.6269 25.8271 12.551C24.517 11.4751 22.8535 10.9251 21.1603 11.008C19.4671 11.0909 17.8652 11.8008 16.6665 12.9995C15.4678 14.1982 14.7579 15.8001 14.675 17.4933C14.5921 19.1865 15.1421 20.85 16.218 22.1601C17.2939 23.4702 18.8187 24.3332 20.4957 24.5811C22.1728 24.829 23.8821 24.4441 25.291 23.5013L29.8303 28.0388L29.9532 28.1452L29.9678 28.1562C30.2372 28.3516 30.5702 28.4386 30.9008 28.4001C31.2313 28.3616 31.5354 28.2004 31.7526 27.9483C31.9699 27.6962 32.0845 27.3717 32.0738 27.039C32.0631 26.7064 31.9279 26.3899 31.6948 26.1523L27.1665 21.624H27.1683ZM21.4942 13.6527C22.6011 13.6527 23.6626 14.0924 24.4453 14.8751C25.228 15.6578 25.6677 16.7194 25.6677 17.8263C25.6677 18.9332 25.228 19.9947 24.4453 20.7774C23.6626 21.5601 22.6011 21.9998 21.4942 21.9998C20.3873 21.9998 19.3257 21.5601 18.543 20.7774C17.7603 19.9947 17.3206 18.9332 17.3206 17.8263C17.3206 16.7194 17.7603 15.6578 18.543 14.8751C19.3257 14.0924 20.3873 13.6527 21.4942 13.6527V13.6527ZM11.9168 3.6665C10.7013 3.6665 9.53547 4.14939 8.67592 5.00893C7.81638 5.86847 7.3335 7.03426 7.3335 8.24984V35.7498C7.3335 36.9654 7.81638 38.1312 8.67592 38.9907C9.53547 39.8503 10.7013 40.3332 11.9168 40.3332H36.2085C36.5732 40.3332 36.9229 40.1883 37.1808 39.9304C37.4386 39.6726 37.5835 39.3228 37.5835 38.9582C37.5835 38.5935 37.4386 38.2438 37.1808 37.9859C36.9229 37.728 36.5732 37.5832 36.2085 37.5832H11.9168C11.4306 37.5832 10.9643 37.39 10.6205 37.0462C10.2767 36.7024 10.0835 36.2361 10.0835 35.7498H36.2085C36.5732 35.7498 36.9229 35.605 37.1808 35.3471C37.4386 35.0892 37.5835 34.7395 37.5835 34.3748V8.24984C37.5835 7.64795 37.4649 7.05195 37.2346 6.49587C37.0043 5.9398 36.6667 5.43453 36.2411 5.00893C35.8155 4.58333 35.3102 4.24572 34.7541 4.01539C34.1981 3.78506 33.6021 3.6665 33.0002 3.6665H11.9168ZM34.8335 32.9998H10.0835V8.24984C10.0835 7.76361 10.2767 7.29729 10.6205 6.95347C10.9643 6.60966 11.4306 6.4165 11.9168 6.4165H33.0002C33.4864 6.4165 33.9527 6.60966 34.2965 6.95347C34.6403 7.29729 34.8335 7.76361 34.8335 8.24984V32.9998Z" fill="black"/>
</svg>
