<svg width="44" height="44" viewBox="0 0 44 44" fill="none" xmlns="http://www.w3.org/2000/svg">
<path d="M31.2221 12.7781C31.0417 12.5975 30.8145 12.4707 30.5661 12.4119C30.3176 12.3532 30.0577 12.3647 29.8155 12.4453L17.4405 16.5703C17.2378 16.6379 17.0537 16.7517 16.9026 16.9028C16.7515 17.0538 16.6377 17.238 16.5701 17.4407L12.4451 29.8157C12.3643 30.0579 12.3526 30.3179 12.4113 30.5665C12.4699 30.815 12.5967 31.0424 12.7772 31.2229C12.9578 31.4035 13.1851 31.5303 13.4337 31.5889C13.6823 31.6476 13.9422 31.6358 14.1845 31.555L26.5595 27.43C26.7622 27.3625 26.9463 27.2486 27.0974 27.0976C27.2485 26.9465 27.3623 26.7623 27.4299 26.5597L31.5549 14.1847C31.6355 13.9424 31.647 13.6825 31.5883 13.4341C31.5295 13.1857 31.4027 12.9585 31.2221 12.7781V12.7781ZM15.9239 28.0777L18.9626 18.9642L25.0388 25.0403L15.9239 28.0777Z" fill="black"/>
<path d="M22 41.25C18.1927 41.25 14.4709 40.121 11.3053 38.0058C8.13963 35.8906 5.67231 32.8841 4.21533 29.3667C2.75834 25.8492 2.37713 21.9787 3.11989 18.2445C3.86266 14.5104 5.69604 11.0804 8.3882 8.3882C11.0804 5.69604 14.5104 3.86266 18.2445 3.11989C21.9787 2.37713 25.8492 2.75834 29.3667 4.21533C32.8841 5.67231 35.8906 8.13963 38.0058 11.3053C40.121 14.4709 41.25 18.1927 41.25 22C41.2442 27.1036 39.2142 31.9966 35.6054 35.6054C31.9966 39.2142 27.1036 41.2442 22 41.25V41.25ZM22 5.50001C18.7366 5.50001 15.5465 6.46772 12.8331 8.28076C10.1197 10.0938 8.00484 12.6708 6.756 15.6857C5.50715 18.7007 5.1804 22.0183 5.81705 25.219C6.45371 28.4197 8.02518 31.3597 10.3327 33.6673C12.6403 35.9748 15.5803 37.5463 18.781 38.183C21.9817 38.8196 25.2993 38.4929 28.3143 37.244C31.3293 35.9952 33.9062 33.8803 35.7193 31.1669C37.5323 28.4535 38.5 25.2634 38.5 22C38.4949 17.6255 36.7549 13.4316 33.6616 10.3384C30.5684 7.24513 26.3745 5.5051 22 5.50001V5.50001Z" fill="black"/>
</svg>
