<svg width="30" height="30" viewBox="0 0 30 30" fill="none" xmlns="http://www.w3.org/2000/svg">
<path d="M20 20C22.7614 20 25 17.7614 25 15C25 12.2386 22.7614 10 20 10C17.2386 10 15 12.2386 15 15C15 17.7614 17.2386 20 20 20Z" fill="#19BCFE"/>
<path fill-rule="evenodd" clip-rule="evenodd" d="M10 30C11.3261 30 12.5979 29.4732 13.5355 28.5355C14.4732 27.5979 15 26.3261 15 25V20H10C8.67392 20 7.40215 20.5268 6.46447 21.4645C5.52678 22.4021 5 23.6739 5 25C5 26.3261 5.52678 27.5979 6.46447 28.5355C7.40215 29.4732 8.67392 30 10 30V30Z" fill="#09CF83"/>
<path fill-rule="evenodd" clip-rule="evenodd" d="M10 20H15V10H10C8.67392 10 7.40215 10.5268 6.46447 11.4645C5.52678 12.4021 5 13.6739 5 15C5 16.3261 5.52678 17.5979 6.46447 18.5355C7.40215 19.4732 8.67392 20 10 20V20Z" fill="#A259FF"/>
<path fill-rule="evenodd" clip-rule="evenodd" d="M10 10H15V0H10C8.67392 0 7.40215 0.526784 6.46447 1.46447C5.52678 2.40215 5 3.67392 5 5C5 6.32608 5.52678 7.59785 6.46447 8.53553C7.40215 9.47322 8.67392 10 10 10V10Z" fill="#F24E1E"/>
<path fill-rule="evenodd" clip-rule="evenodd" d="M20 10H15V0H20C21.3261 0 22.5979 0.526784 23.5355 1.46447C24.4732 2.40215 25 3.67392 25 5C25 6.32608 24.4732 7.59785 23.5355 8.53553C22.5979 9.47322 21.3261 10 20 10Z" fill="#FF7262"/>
</svg>
