<svg width="108" height="108" viewBox="0 0 108 108" fill="none" xmlns="http://www.w3.org/2000/svg">
<path d="M33.1018 15.0821C36.7845 12.293 41.2802 10.7888 45.8998 10.7999C47.1958 10.7999 48.2272 11.4749 48.8266 11.9393C49.4962 12.4685 50.1226 13.1435 50.6842 13.8185C51.0824 14.3021 51.3 14.9092 51.2998 15.5357V35.0999H45.4408C44.8039 33.2984 43.5506 31.7801 41.9025 30.8133C40.2544 29.8465 38.3176 29.4934 36.4343 29.8165C34.5511 30.1396 32.8427 31.1181 31.6111 32.579C30.3795 34.0399 29.704 35.8891 29.704 37.7999C29.704 39.7106 30.3795 41.5599 31.6111 43.0207C32.8427 44.4816 34.5511 45.4601 36.4343 45.7832C38.3176 46.1063 40.2544 45.7533 41.9025 44.7865C43.5506 43.8197 44.8039 42.3013 45.4408 40.4999H51.2998V91.3409C51.3001 91.7406 51.2116 92.1355 51.0407 92.4969C50.8698 92.8583 50.6208 93.1772 50.3116 93.4307C47.8168 95.4719 44.4796 97.1999 40.4998 97.1999C34.0954 97.1999 29.3272 93.9707 26.2438 90.1097C24.0285 87.3587 22.5112 84.1129 21.8212 80.6489C19.7232 80.0895 17.778 79.0652 16.1296 77.6519C13.1488 75.0977 10.7998 70.9559 10.7998 64.7999C10.7998 61.7921 10.9996 59.0759 11.4478 56.6999H28.3498C31.7842 56.6999 34.6138 59.2649 35.0458 62.5805C33.25 63.2304 31.7416 64.4939 30.7869 66.1479C29.8322 67.8019 29.4927 69.7401 29.8282 71.6201C30.1637 73.5002 31.1528 75.2012 32.6206 76.4229C34.0885 77.6446 35.9409 78.3083 37.8506 78.2969C39.7604 78.2855 41.6046 77.5997 43.0578 76.3605C44.511 75.1214 45.4796 73.4086 45.7927 71.5247C46.1057 69.6408 45.743 67.7068 44.7686 66.0643C43.7942 64.4218 42.2708 63.1764 40.4674 62.5481C40.2398 59.4901 38.8643 56.6312 36.6169 54.545C34.3694 52.4588 31.4163 51.2996 28.3498 51.2999H13.1812C14.0074 49.6907 15.1144 48.3299 16.5562 47.3633C16.9209 47.1218 17.3036 46.9088 17.701 46.7261C16.1674 42.2333 16.567 36.9737 18.0466 32.8427C18.9916 30.1859 20.4928 27.6749 22.5556 26.0009C23.9164 24.8939 25.5364 24.1649 27.3076 24.0245C28.0852 20.3363 30.2722 17.2853 33.1072 15.0821H33.1018ZM56.6998 78.2999H60.7498C63.9722 78.2999 67.0626 77.0198 69.3411 74.7412C71.6197 72.4626 72.8998 69.3722 72.8998 66.1499V56.2409C74.7013 55.6039 76.2196 54.3507 77.1864 52.7026C78.1532 51.0545 78.5063 49.1176 78.1831 47.2344C77.86 45.3511 76.8816 43.6428 75.4207 42.4112C73.9598 41.1796 72.1106 40.5041 70.1998 40.5041C68.289 40.5041 66.4398 41.1796 64.9789 42.4112C63.518 43.6428 62.5396 45.3511 62.2165 47.2344C61.8933 49.1176 62.2464 51.0545 63.2132 52.7026C64.18 54.3507 65.6983 55.6039 67.4998 56.2409V66.1499C67.4998 69.8759 64.4758 72.8999 60.7498 72.8999H56.6998V15.5357C56.6996 14.9092 56.9172 14.3021 57.3154 13.8185C57.8716 13.1435 58.5034 12.4685 59.173 11.9393C59.767 11.4749 60.7984 10.7999 62.0998 10.7999C66.7194 10.7888 71.2151 12.293 74.8978 15.0821C77.7328 17.2853 79.9198 20.3363 80.692 24.0245C82.4632 24.1595 84.0832 24.8939 85.444 26.0009C87.5068 27.6749 89.008 30.1859 89.953 32.8427C91.4326 36.9737 91.8322 42.2387 90.2986 46.7207C90.6874 46.9043 91.0708 47.1203 91.4434 47.3687C92.9284 48.3569 94.057 49.7717 94.8886 51.4403C96.5248 54.7073 97.1998 59.2649 97.1998 64.7999C97.1998 70.9613 94.8508 75.0977 91.87 77.6519C90.2217 79.0652 88.2764 80.0895 86.1784 80.6489C85.6384 83.6621 84.1264 87.1505 81.7558 90.1097C78.6778 93.9707 73.9042 97.1999 67.4998 97.1999C63.5254 97.1999 60.1828 95.4719 57.6934 93.4307C57.3833 93.1777 57.1332 92.859 56.9614 92.4976C56.7895 92.1362 56.7002 91.7411 56.6998 91.3409V78.2999ZM37.7998 35.0999C37.0837 35.0999 36.397 35.3843 35.8906 35.8907C35.3843 36.397 35.0998 37.0838 35.0998 37.7999C35.0998 38.5159 35.3843 39.2027 35.8906 39.7091C36.397 40.2154 37.0837 40.4999 37.7998 40.4999C38.5159 40.4999 39.2026 40.2154 39.709 39.7091C40.2153 39.2027 40.4998 38.5159 40.4998 37.7999C40.4998 37.0838 40.2153 36.397 39.709 35.8907C39.2026 35.3843 38.5159 35.0999 37.7998 35.0999ZM37.7998 67.4999C37.0837 67.4999 36.397 67.7843 35.8906 68.2907C35.3843 68.797 35.0998 69.4838 35.0998 70.1999C35.0998 70.9159 35.3843 71.6027 35.8906 72.1091C36.397 72.6154 37.0837 72.8999 37.7998 72.8999C38.5159 72.8999 39.2026 72.6154 39.709 72.1091C40.2153 71.6027 40.4998 70.9159 40.4998 70.1999C40.4998 69.4838 40.2153 68.797 39.709 68.2907C39.2026 67.7843 38.5159 67.4999 37.7998 67.4999ZM70.1998 51.2999C70.9159 51.2999 71.6026 51.0154 72.109 50.5091C72.6153 50.0027 72.8998 49.3159 72.8998 48.5999C72.8998 47.8838 72.6153 47.197 72.109 46.6907C71.6026 46.1843 70.9159 45.8999 70.1998 45.8999C69.4837 45.8999 68.797 46.1843 68.2906 46.6907C67.7843 47.197 67.4998 47.8838 67.4998 48.5999C67.4998 49.3159 67.7843 50.0027 68.2906 50.5091C68.797 51.0154 69.4837 51.2999 70.1998 51.2999Z" fill="white"/>
</svg>
