<svg width="108" height="108" viewBox="0 0 108 108" fill="none" xmlns="http://www.w3.org/2000/svg">
<path d="M59.3996 16.1998C59.3996 14.7676 58.8307 13.3941 57.818 12.3814C56.8053 11.3687 55.4318 10.7998 53.9996 10.7998C52.5674 10.7998 51.1939 11.3687 50.1812 12.3814C49.1685 13.3941 48.5996 14.7676 48.5996 16.1998V21.5998C48.5996 23.032 49.1685 24.4055 50.1812 25.4182C51.1939 26.4309 52.5674 26.9998 53.9996 26.9998C55.4318 26.9998 56.8053 26.4309 57.818 25.4182C58.8307 24.4055 59.3996 23.032 59.3996 21.5998V16.1998Z" fill="white"/>
<path d="M84.5474 31.088C85.531 30.0695 86.0753 28.7055 86.063 27.2896C86.0507 25.8737 85.4828 24.5193 84.4816 23.5181C83.4804 22.5169 82.126 21.949 80.7101 21.9367C79.2943 21.9244 77.9302 22.4687 76.9118 23.4524L73.094 27.2702C72.1103 28.2886 71.566 29.6527 71.5783 31.0685C71.5906 32.4844 72.1585 33.8388 73.1597 34.84C74.161 35.8412 75.5153 36.4091 76.9312 36.4214C78.3471 36.4337 79.7111 35.8894 80.7296 34.9058L84.5474 31.088Z" fill="white"/>
<path d="M97.2 53.9996C97.2 55.4318 96.6311 56.8053 95.6184 57.818C94.6057 58.8307 93.2322 59.3996 91.8 59.3996H86.4C84.9678 59.3996 83.5943 58.8307 82.5816 57.818C81.5689 56.8053 81 55.4318 81 53.9996C81 52.5674 81.5689 51.1939 82.5816 50.1812C83.5943 49.1685 84.9678 48.5996 86.4 48.5996H91.8C93.2322 48.5996 94.6057 49.1685 95.6184 50.1812C96.6311 51.1939 97.2 52.5674 97.2 53.9996Z" fill="white"/>
<path d="M27.2702 34.9058C27.7683 35.4215 28.3642 35.8329 29.023 36.1159C29.6818 36.3989 30.3904 36.5479 31.1074 36.5541C31.8244 36.5604 32.5355 36.4237 33.1991 36.1522C33.8628 35.8807 34.4657 35.4797 34.9727 34.9727C35.4797 34.4657 35.8807 33.8628 36.1522 33.1991C36.4237 32.5355 36.5604 31.8244 36.5541 31.1074C36.5479 30.3904 36.3989 29.6818 36.1159 29.023C35.8329 28.3642 35.4215 27.7683 34.9058 27.2702L31.088 23.4524C30.0695 22.4687 28.7055 21.9244 27.2896 21.9367C25.8737 21.949 24.5193 22.5169 23.5181 23.5181C22.5169 24.5193 21.949 25.8737 21.9367 27.2896C21.9244 28.7055 22.4687 30.0695 23.4524 31.088L27.2702 34.9058V34.9058Z" fill="white"/>
<path d="M26.9998 53.9996C26.9998 55.4318 26.4309 56.8053 25.4182 57.818C24.4055 58.8307 23.032 59.3996 21.5998 59.3996H16.1998C14.7676 59.3996 13.3941 58.8307 12.3814 57.818C11.3687 56.8053 10.7998 55.4318 10.7998 53.9996C10.7998 52.5674 11.3687 51.1939 12.3814 50.1812C13.3941 49.1685 14.7676 48.5996 16.1998 48.5996H21.5998C23.032 48.5996 24.4055 49.1685 25.4182 50.1812C26.4309 51.1939 26.9998 52.5674 26.9998 53.9996Z" fill="white"/>
<path d="M43.2002 86.4V81H64.8002V86.4C64.8002 89.2643 63.6623 92.0114 61.6369 94.0367C59.6116 96.0621 56.8645 97.2 54.0002 97.2C51.1359 97.2 48.3888 96.0621 46.3634 94.0367C44.3381 92.0114 43.2002 89.2643 43.2002 86.4V86.4Z" fill="white"/>
<path d="M64.7994 75.6002C64.8804 73.7642 65.9226 72.1118 67.3752 70.9616C70.8997 68.1819 73.4707 64.3734 74.7308 60.0652C75.9909 55.757 75.8776 51.1633 74.4065 46.9225C72.9355 42.6817 70.1798 39.0046 66.5225 36.4022C62.8653 33.7998 58.4881 32.4014 53.9994 32.4014C49.5107 32.4014 45.1336 33.7998 41.4763 36.4022C37.819 39.0046 35.0634 42.6817 33.5923 46.9225C32.1213 51.1633 32.0079 55.757 33.268 60.0652C34.5282 64.3734 37.0991 68.1819 40.6236 70.9616C42.0816 72.1118 43.1184 73.7642 43.194 75.6002H64.8048H64.7994Z" fill="white"/>
</svg>
