<svg width="30" height="29" viewBox="0 0 30 29" fill="none" xmlns="http://www.w3.org/2000/svg">
<g clip-path="url(#clip0_85_75)">
<path d="M25.9207 0H4.07914C2.61521 0 1.42847 1.24921 1.42847 2.79018V25.7812C1.42847 27.3222 2.61521 28.5714 4.07914 28.5714H25.9207C27.3846 28.5714 28.5713 27.3222 28.5713 25.7812V2.79018C28.5713 1.24921 27.3846 0 25.9207 0Z" fill="url(#paint0_linear_85_75)"/>
<path d="M23.7704 3.71428H18.0365C17.3338 3.71428 16.7642 4.3139 16.7642 5.05356V14.875C16.7642 15.6147 17.3338 16.2143 18.0365 16.2143H23.7704C24.4731 16.2143 25.0427 15.6147 25.0427 14.875V5.05356C25.0427 4.3139 24.4731 3.71428 23.7704 3.71428Z" fill="white"/>
<path d="M11.9633 3.71428H6.22935C5.52667 3.71428 4.95703 4.3139 4.95703 5.05357V22.0179C4.95703 22.7575 5.52667 23.3571 6.22935 23.3571H11.9633C12.666 23.3571 13.2356 22.7575 13.2356 22.0179V5.05357C13.2356 4.3139 12.666 3.71428 11.9633 3.71428Z" fill="white"/>
</g>
<defs>
<linearGradient id="paint0_linear_85_75" x1="14.9999" y1="0" x2="14.9999" y2="28.5714" gradientUnits="userSpaceOnUse">
<stop stop-color="#0091E6"/>
<stop offset="1" stop-color="#0079BF"/>
</linearGradient>
<clipPath id="clip0_85_75">
<rect width="30" height="28.5714" fill="white"/>
</clipPath>
</defs>
</svg>
