<svg width="108" height="108" viewBox="0 0 108 108" fill="none" xmlns="http://www.w3.org/2000/svg">
<path d="M31.4649 65.2589C30.2714 65.2589 29.1268 65.733 28.2829 66.5769C27.439 67.4208 26.9649 68.5654 26.9649 69.7589V77.7779C21.1647 71.2187 17.9637 62.7647 17.9649 54.0089C17.9629 52.6854 18.0411 51.3629 18.1989 50.0489C18.2847 49.4553 18.2511 48.8505 18.0998 48.2701C17.9486 47.6897 17.6829 47.1454 17.3183 46.6691C16.9537 46.1929 16.4976 45.7944 15.9767 45.497C15.4559 45.1995 14.8808 45.0092 14.2854 44.9372C13.6899 44.8652 13.0861 44.913 12.5094 45.0777C11.9327 45.2424 11.3947 45.5208 10.9271 45.8964C10.4595 46.272 10.0717 46.7373 9.78651 47.265C9.50131 47.7926 9.32448 48.3719 9.26639 48.9689C9.06314 50.6411 8.96245 52.3243 8.96489 54.0089C8.97103 64.7467 12.8304 75.1258 19.8414 83.2589H13.4649C12.2714 83.2589 11.1268 83.733 10.2829 84.5769C9.43899 85.4208 8.96489 86.5654 8.96489 87.7589C8.96489 88.9524 9.43899 90.0969 10.2829 90.9409C11.1268 91.7848 12.2714 92.2589 13.4649 92.2589H31.4649C32.1686 92.2498 32.86 92.0727 33.4815 91.7424C34.103 91.412 34.6366 90.9381 35.0379 90.3599C35.0874 90.2924 35.1549 90.2384 35.2044 90.1664C35.2359 90.1214 35.2359 90.0674 35.2629 90.0224C35.4772 89.6605 35.6379 89.2694 35.7399 88.8614C35.8074 88.6318 35.8556 88.397 35.8839 88.1594C35.8974 88.0244 35.9649 87.9029 35.9649 87.7589V69.7589C35.9649 68.5654 35.4908 67.4208 34.6469 66.5769C33.803 65.733 32.6584 65.2589 31.4649 65.2589V65.2589ZM38.2149 27.0089H30.1914C36.7522 21.2084 45.2077 18.0074 53.9649 18.0089C55.2886 18.006 56.6111 18.0856 57.9249 18.2474C59.1106 18.3906 60.3046 18.0569 61.2443 17.3198C62.184 16.5826 62.7924 15.5023 62.9356 14.3166C63.0789 13.1309 62.7452 11.9369 62.008 10.9972C61.2709 10.0575 60.1906 9.44909 59.0049 9.30587C57.3325 9.10473 55.6494 9.00555 53.9649 9.00887C43.2271 9.01501 32.848 12.8744 24.7149 19.8854V13.5089C24.7149 12.3154 24.2408 11.1708 23.3969 10.3269C22.553 9.48298 21.4084 9.00887 20.2149 9.00887C19.0214 9.00887 17.8768 9.48298 17.0329 10.3269C16.189 11.1708 15.7149 12.3154 15.7149 13.5089V31.5089C15.7427 31.8067 15.8015 32.1008 15.8904 32.3864C15.9989 32.9416 16.2144 33.4704 16.5249 33.9434L16.5789 34.0199C16.8757 34.4516 17.2476 34.8265 17.6769 35.1269C17.7264 35.1629 17.7534 35.2169 17.8029 35.2529C17.8659 35.2979 17.9379 35.3114 18.0054 35.3474C18.2616 35.5011 18.533 35.6278 18.8154 35.7254C19.1943 35.8575 19.5894 35.9377 19.9899 35.9639C20.0709 35.9639 20.1339 36.0089 20.2149 36.0089H38.2149C39.4084 36.0089 40.553 35.5348 41.3969 34.6909C42.2408 33.8469 42.7149 32.7023 42.7149 31.5089C42.7149 30.3154 42.2408 29.1708 41.3969 28.3269C40.553 27.483 39.4084 27.0089 38.2149 27.0089ZM92.0349 75.6269C91.9261 75.0731 91.7106 74.5458 91.4004 74.0744L91.3509 73.9979C91.0527 73.5658 90.6793 73.1908 90.2484 72.8909C90.1989 72.8549 90.1764 72.8009 90.1224 72.7649C90.0774 72.7334 90.0189 72.7334 89.9694 72.7019C89.3984 72.3836 88.7724 72.1759 88.1244 72.0899C87.9804 72.0764 87.8589 72.0089 87.7149 72.0089H69.7149C68.5214 72.0089 67.3768 72.483 66.5329 73.3269C65.689 74.1708 65.2149 75.3154 65.2149 76.5089C65.2149 77.7024 65.689 78.8469 66.5329 79.6909C67.3768 80.5348 68.5214 81.0089 69.7149 81.0089H77.7339C71.1745 86.8087 62.7206 90.0097 53.9649 90.0089C52.6411 90.0103 51.3186 89.9291 50.0049 89.7659C48.8192 89.6227 47.6251 89.9563 46.6854 90.6935C45.7457 91.4307 45.1374 92.5109 44.9941 93.6966C44.8509 94.8824 45.1846 96.0764 45.9218 97.0161C46.6589 97.9558 47.7392 98.5642 48.9249 98.7074C50.5974 98.9085 52.2804 99.0092 53.9649 99.0089C64.7027 99.0027 75.0818 95.1433 83.2149 88.1324V94.5089C83.2149 95.7024 83.689 96.8469 84.5329 97.6909C85.3768 98.5348 86.5214 99.0089 87.7149 99.0089C88.9084 99.0089 90.0529 98.5348 90.8969 97.6909C91.7408 96.8469 92.2149 95.7024 92.2149 94.5089V76.5089C92.1857 76.2109 92.1254 75.9168 92.0349 75.6314V75.6269ZM94.4649 24.7589C95.6584 24.7589 96.8029 24.2848 97.6469 23.4409C98.4908 22.5969 98.9649 21.4523 98.9649 20.2589C98.9649 19.0654 98.4908 17.9208 97.6469 17.0769C96.8029 16.233 95.6584 15.7589 94.4649 15.7589H76.4649C76.1716 15.7875 75.8821 15.8463 75.6009 15.9344L75.5694 15.9389C75.0238 16.0492 74.5044 16.263 74.0394 16.5689L73.9494 16.6274C73.5193 16.9247 73.146 17.2965 72.8469 17.7254C72.8109 17.7704 72.7569 17.7974 72.7209 17.8469C72.6894 17.8919 72.6894 17.9504 72.6579 17.9999C72.3372 18.5746 72.1294 19.2055 72.0459 19.8584C72.0324 19.9934 71.9649 20.1149 71.9649 20.2589V38.2589C71.9649 39.4523 72.439 40.5969 73.2829 41.4409C74.1268 42.2848 75.2714 42.7589 76.4649 42.7589C77.6584 42.7589 78.803 42.2848 79.6469 41.4409C80.4908 40.5969 80.9649 39.4523 80.9649 38.2589V30.2354C86.765 36.7964 89.9659 45.2517 89.9649 54.0089C89.9654 55.3325 89.8857 56.6549 89.7264 57.9689C89.5841 59.1531 89.9172 60.3455 90.6529 61.2844C91.3885 62.2233 92.4665 62.8322 93.6504 62.9774C93.8326 62.9987 94.0159 63.0093 94.1994 63.0089C95.298 63.0069 96.3579 62.6032 97.1794 61.8737C98.0008 61.1443 98.5271 60.1395 98.6589 59.0489C98.8636 57.3767 98.9658 55.6935 98.9649 54.0089C98.9587 43.2711 95.0993 32.892 88.0884 24.7589H94.4649Z" fill="white"/>
</svg>
